<?xml version="1.0" encoding="utf-8"?>
<!-- Generator: Adobe Illustrator 19.0.0, SVG Export Plug-In . SVG Version: 6.00 Build 0)  -->
<svg version="1.1" id="Test_File" xmlns:ev="http://www.w3.org/2001/xml-events"
	 xmlns="http://www.w3.org/2000/svg" xmlns:xlink="http://www.w3.org/1999/xlink" x="0px" y="0px" viewBox="94 -4 800 800"
	 style="enable-background:new 94 -4 800 800;" xml:space="preserve">
<style type="text/css">
	.st0{fill:url(#SVGID_1_);stroke:#000000;stroke-width:0.15;}
	.st1{fill:#FF8000;}
	.st2{fill:none;stroke:#000000;stroke-width:0.5;stroke-linecap:round;}
	.st3{fill:none;stroke:#000000;stroke-width:0.75;}
</style>
<radialGradient id="SVGID_1_" cx="188.3766" cy="791.5052" r="0.5" gradientTransform="matrix(761.9048 0 0 -761.9048 -143052.0469 603426.625)" gradientUnits="userSpaceOnUse">
	<stop  offset="0" style="stop-color:#FFFF00"/>
	<stop  offset="0.75" style="stop-color:#FFFF00"/>
	<stop  offset="0.95" style="stop-color:#EEEE00"/>
	<stop  offset="1" style="stop-color:#E8E800"/>
</radialGradient>
<circle class="st0" cx="473" cy="375" r="381"/>
<circle class="st1" cx="473" cy="375" r="381"/>
<g id="right">
	<ellipse cx="358.7" cy="241.7" rx="47.6" ry="76.2"/>
	<path class="st2" d="M674.9,426.4c8.9,34.5,40.6,58.3,76.2,57.1"/>
</g>
<g transform="scale(-1,1)">
	<g id="right_1_">
		<ellipse cx="587.3" cy="241.7" rx="47.6" ry="76.2"/>
		<path class="st2" d="M271.1,426.4c-8.9,34.5-40.6,58.3-76.2,57.1"/>
	</g>
</g>
<path class="st3" d="M244.4,470.2C309.5,596.5,464.6,646.1,590.8,581c47.5-24.5,86.3-63.2,110.8-110.8
	C649,596.5,504,656.2,377.8,603.6C317.5,578.5,269.5,530.5,244.4,470.2"/>
</svg>
